<svg width="32" height="32" viewBox="0 0 32 32" fill="none" xmlns="http://www.w3.org/2000/svg">
<g clip-path="url(#clip0_216_4002)">
<path fill-rule="evenodd" clip-rule="evenodd" d="M1.77617 0.304743C1.36985 -0.101581 0.711067 -0.101581 0.304743 0.304743C-0.101581 0.711067 -0.101581 1.36985 0.304743 1.77617L14.5286 16L0.304752 30.2238C-0.101572 30.6302 -0.101572 31.2889 0.304752 31.6953C0.711076 32.1016 1.36986 32.1016 1.77618 31.6953L16 17.4714L30.2238 31.6953C30.6301 32.1016 31.2889 32.1016 31.6953 31.6953C32.1016 31.2889 32.1016 30.6302 31.6953 30.2238L17.4714 16L31.6953 1.77618C32.1016 1.36985 32.1016 0.71107 31.6953 0.304746C31.2889 -0.101578 30.6302 -0.101578 30.2238 0.304746L16 14.5286L1.77617 0.304743Z" fill="white"/>
</g>
<defs>
<clipPath id="clip0_216_4002">
<rect width="32" height="32" fill="white"/>
</clipPath>
</defs>
</svg>
