<?xml version="1.0" encoding="utf-8"?>
<!-- Generator: Adobe Illustrator 26.5.0, SVG Export Plug-In . SVG Version: 6.00 Build 0)  -->
<svg version="1.1" id="Layer_1" xmlns="http://www.w3.org/2000/svg" xmlns:xlink="http://www.w3.org/1999/xlink" x="0px" y="0px"
	 viewBox="0 0 24 24" style="enable-background:new 0 0 24 24;" xml:space="preserve">
<style type="text/css">
	.st0{fill-rule:evenodd;clip-rule:evenodd;fill:#FFFFFF;filter:url(#Adobe_OpacityMaskFilter);}
	.st1{mask:url(#mask0_1248_4552_00000016788980467937483680000003890237240197091712_);}
	.st2{fill-rule:evenodd;clip-rule:evenodd;fill:#3E3B45;}
	.st3{fill:#3E3B45;}
</style>
<defs>
	<filter id="Adobe_OpacityMaskFilter" filterUnits="userSpaceOnUse" x="2" y="6.5" width="19.6" height="16.2">
		<feColorMatrix  type="matrix" values="1 0 0 0 0  0 1 0 0 0  0 0 1 0 0  0 0 0 1 0"/>
	</filter>
</defs>
<mask maskUnits="userSpaceOnUse" x="2" y="6.5" width="19.6" height="16.2" id="mask0_1248_4552_00000016788980467937483680000003890237240197091712_">
	<path class="st0" d="M2,6.5h19.6v16.2H2V6.5z"/>
</mask>
<g class="st1">
	<path class="st2" d="M6.7,8c-0.4,0-1.9,0.2-2.3,2.5l-0.8,6c-0.3,1.7-0.1,2.9,0.6,3.6c0.6,0.7,1.7,1.1,3.4,1.1H16
		c1,0,2.5-0.2,3.3-1.2c0.7-0.8,0.9-2,0.7-3.5l-0.8-6.1C18.9,9,18,8,16.9,8H6.7z M16,22.7H7.6c-2.1,0-3.6-0.5-4.6-1.6
		c-0.9-1.1-1.2-2.7-0.9-4.8l0.8-6c0.5-2.8,2.4-3.7,3.8-3.7h10.2c1.4,0,3.2,1,3.8,3.7l0.8,6.1c0.3,2-0.1,3.6-1.1,4.7
		C19.5,22.1,17.9,22.7,16,22.7L16,22.7z"/>
</g>
<path class="st2" d="M16.1,7.8c-0.4,0-0.8-0.3-0.8-0.8c0-2-1.6-3.6-3.6-3.6h0c-0.9,0-1.9,0.4-2.5,1C8.6,5.2,8.2,6.1,8.2,7.1
	c0,0.4-0.3,0.8-0.7,0.8C7,7.8,6.7,7.5,6.7,7.1c0-1.3,0.5-2.6,1.5-3.6C9.1,2.5,10.4,2,11.8,2h0c2.8,0,5.1,2.3,5.1,5.1
	C16.8,7.5,16.5,7.8,16.1,7.8"/>
<path class="st2" d="M14.7,13.5L14.7,13.5c-0.5,0-0.8-0.3-0.8-0.8c0-0.4,0.3-0.8,0.8-0.8c0.4,0,0.8,0.3,0.8,0.8
	C15.5,13.2,15.2,13.5,14.7,13.5"/>
<path class="st2" d="M8.9,13.5L8.9,13.5c-0.5,0-0.8-0.3-0.8-0.8c0-0.4,0.3-0.8,0.8-0.8c0.4,0,0.8,0.3,0.8,0.8
	C9.6,13.2,9.3,13.5,8.9,13.5"/>
<path class="st3" d="M14.7,16.9c0,0.2-0.1,0.3-0.3,0.3c-0.1,0-0.1,0-0.2-0.1c0,0,0,0-0.1,0c-0.7-0.6-1.5-0.9-2.4-0.9
	c-0.9,0-1.7,0.3-2.4,0.9c-0.1,0.1-0.1,0.1-0.2,0.1c-0.2,0-0.3-0.1-0.3-0.3c0-0.1,0-0.2,0.1-0.2c0,0,0,0,0.1-0.1c0,0,0,0,0,0
	c0.8-0.7,1.8-1.1,2.8-1.1c1,0,2,0.4,2.8,1.1c0,0,0.1,0.1,0.1,0.1C14.7,16.7,14.7,16.8,14.7,16.9z"/>
</svg>
