<svg width="24" height="24" viewBox="0 0 24 24" fill="none" xmlns="http://www.w3.org/2000/svg">
<path d="M12.0004 3.27271C9.63026 3.27271 9.33281 3.28307 8.40196 3.32543C7.47286 3.36798 6.83871 3.51507 6.28381 3.73089C5.70986 3.9538 5.22296 4.25198 4.73787 4.73725C4.25243 5.22232 3.95426 5.70927 3.73063 6.28307C3.51427 6.83817 3.367 7.47252 3.32519 8.40127C3.28355 9.33217 3.27264 9.62982 3.27264 12C3.27264 14.3702 3.28319 14.6667 3.32537 15.5976C3.36809 16.5267 3.51518 17.1609 3.73081 17.7158C3.95389 18.2898 4.25207 18.7767 4.73732 19.2618C5.22221 19.7473 5.70911 20.0462 6.28271 20.2691C6.83801 20.4849 7.47231 20.632 8.40121 20.6745C9.33211 20.7169 9.62936 20.7273 11.9993 20.7273C14.3696 20.7273 14.6661 20.7169 15.597 20.6745C16.5261 20.632 17.161 20.4849 17.7162 20.2691C18.29 20.0462 18.7762 19.7473 19.2611 19.2618C19.7465 18.7767 20.0447 18.2898 20.2683 17.716C20.4829 17.1609 20.6301 16.5265 20.6738 15.5978C20.7156 14.6669 20.7265 14.3702 20.7265 12C20.7265 9.62982 20.7156 9.33232 20.6738 8.40142C20.6301 7.47232 20.4829 6.83817 20.2683 6.28327C20.0447 5.70927 19.7465 5.22232 19.2611 4.73725C18.7756 4.25179 18.2902 3.95362 17.7157 3.73089C17.1593 3.51507 16.5248 3.36798 15.5957 3.32543C14.6649 3.28307 14.3685 3.27271 11.9977 3.27271H12.0004ZM11.2175 4.84544C11.4499 4.84507 11.7091 4.84544 12.0004 4.84544C14.3305 4.84544 14.6067 4.8538 15.5268 4.89562C16.3777 4.93453 16.8395 5.07672 17.1471 5.19617C17.5544 5.35432 17.8448 5.54342 18.15 5.84887C18.4555 6.15432 18.6446 6.44527 18.8031 6.85252C18.9225 7.15982 19.0649 7.62162 19.1036 8.47252C19.1454 9.39252 19.1545 9.66887 19.1545 11.998C19.1545 14.3271 19.1454 14.6034 19.1036 15.5234C19.0647 16.3743 18.9225 16.8362 18.8031 17.1434C18.6449 17.5507 18.4555 17.8407 18.15 18.146C17.8446 18.4514 17.5546 18.6405 17.1471 18.7987C16.8399 18.9187 16.3777 19.0605 15.5268 19.0994C14.6069 19.1413 14.3305 19.1503 12.0004 19.1503C9.67006 19.1503 9.39391 19.1413 8.47396 19.0994C7.62306 19.0602 7.16126 18.918 6.85346 18.7985C6.44616 18.6403 6.15526 18.4513 5.84981 18.1458C5.54441 17.8403 5.35531 17.5502 5.19676 17.1427C5.07731 16.8354 4.93495 16.3736 4.89623 15.5227C4.85441 14.6027 4.84605 14.3263 4.84605 11.9958C4.84605 9.66527 4.85441 9.39032 4.89623 8.47032C4.93514 7.61942 5.07731 7.15762 5.19676 6.84997C5.35496 6.44272 5.54441 6.15182 5.84981 5.84632C6.15526 5.54087 6.44616 5.35182 6.85346 5.19327C7.16106 5.07327 7.62306 4.93144 8.47396 4.89234C9.27901 4.85598 9.59101 4.84507 11.2175 4.84325V4.84544ZM16.6588 6.29452C16.0806 6.29452 15.6116 6.76307 15.6116 7.34142C15.6116 7.91962 16.0806 8.38872 16.6588 8.38872C17.237 8.38872 17.706 7.91962 17.706 7.34142C17.706 6.76327 17.237 6.29417 16.6588 6.29417V6.29452ZM12.0004 7.51817C9.52536 7.51817 7.51871 9.52487 7.51871 12C7.51871 14.4751 9.52536 16.4809 12.0004 16.4809C14.4754 16.4809 16.4813 14.4751 16.4813 12C16.4813 9.52487 14.4752 7.51817 12.0002 7.51817H12.0004ZM12.0004 9.09087C13.6069 9.09087 14.9094 10.3933 14.9094 12C14.9094 13.6065 13.6069 14.9091 12.0004 14.9091C10.3937 14.9091 9.09136 13.6065 9.09136 12C9.09136 10.3933 10.3937 9.09087 12.0004 9.09087Z" fill="black"/>
</svg>
