<svg width="24" height="24" viewBox="0 0 24 24" fill="none" xmlns="http://www.w3.org/2000/svg">
<path fill-rule="evenodd" clip-rule="evenodd" d="M4.70667 3.5C4.04024 3.5 3.5 4.04024 3.5 4.70667V19.2933C3.5 19.9597 4.04025 20.5 4.70667 20.5H19.2934C19.9598 20.5 20.5 19.9597 20.5 19.2933V4.70667C20.5 4.04025 19.9598 3.5 19.2934 3.5H4.70667ZM7.3157 8.77937C8.1302 8.77937 8.79045 8.11907 8.79045 7.30462C8.79045 6.49012 8.1302 5.82987 7.3157 5.82987C6.50125 5.82987 5.84095 6.49012 5.84095 7.30462C5.84095 8.11907 6.50125 8.77937 7.3157 8.77937ZM10.1411 9.86922H12.5852V10.9889C12.5852 10.9889 13.2485 9.66242 15.0531 9.66242C16.6629 9.66242 17.9964 10.4554 17.9964 12.8726V17.9698H15.4635V13.4903C15.4635 12.0643 14.7023 11.9075 14.1222 11.9075C12.9184 11.9075 12.7122 12.9459 12.7122 13.6763V17.9698H10.1411V9.86922ZM8.6013 9.86927H6.03015V17.9698H8.6013V9.86927Z" fill="black"/>
</svg>
