<svg width="24" height="24" viewBox="0 0 24 24" fill="none" xmlns="http://www.w3.org/2000/svg">
<path d="M13.5922 12.0004L18.0453 7.54724C18.2567 7.33627 18.3756 7.04998 18.3758 6.75136C18.3761 6.45274 18.2577 6.16624 18.0467 5.9549C17.8358 5.74355 17.5495 5.62467 17.2509 5.62441C16.9522 5.62414 16.6657 5.74252 16.4544 5.95349L12.0013 10.4066L7.54816 5.95349C7.33681 5.74215 7.05017 5.62341 6.75128 5.62341C6.45239 5.62341 6.16575 5.74215 5.95441 5.95349C5.74306 6.16483 5.62433 6.45148 5.62433 6.75036C5.62433 7.04925 5.74306 7.3359 5.95441 7.54724L10.4075 12.0004L5.95441 16.4535C5.74306 16.6648 5.62433 16.9515 5.62433 17.2504C5.62433 17.5493 5.74306 17.8359 5.95441 18.0472C6.16575 18.2586 6.45239 18.3773 6.75128 18.3773C7.05017 18.3773 7.33681 18.2586 7.54816 18.0472L12.0013 13.5941L16.4544 18.0472C16.6657 18.2586 16.9524 18.3773 17.2513 18.3773C17.5502 18.3773 17.8368 18.2586 18.0482 18.0472C18.2595 17.8359 18.3782 17.5493 18.3782 17.2504C18.3782 16.9515 18.2595 16.6648 18.0482 16.4535L13.5922 12.0004Z" fill="#3E3B45"/>
</svg>
