<?xml version="1.0" encoding="utf-8"?>
<!-- Generator: Adobe Illustrator 26.0.1, SVG Export Plug-In . SVG Version: 6.00 Build 0)  -->
<svg version="1.1" id="Layer_1" xmlns="http://www.w3.org/2000/svg" xmlns:xlink="http://www.w3.org/1999/xlink" x="0px" y="0px"
	 viewBox="0 0 878.5 205.7" style="enable-background:new 0 0 878.5 205.7;" xml:space="preserve">
<style type="text/css">
	.st0{fill:#171717;}
</style>
<path class="st0" d="M418.9,2c-23.6-5.1-48.8-0.1-69.7,11.8c-21,11.9-37.6,31.4-46,54.2c-4.1,11.4-6.2,23.5-6.2,35.6
	c0.2,12.1,2.4,24.2,6.7,35.4c8.5,22.5,24.8,42.3,46,53.7c20.9,11.6,45.9,15.9,69.2,11.1c23.2-4.8,44.5-17.8,58.6-36.3
	c-15.7,17.1-36.9,28.7-59.4,31.9c-22.4,3.7-45.8-1.2-64.9-12.8c-19.1-11.5-34.3-29.6-41.7-50.5c-3.8-10.4-5.7-21.5-5.7-32.6
	c0.2-11.1,2.2-22.1,6.1-32.4c7.4-20.8,22.4-39,41.6-50.1c19.1-11.3,42.2-15.7,64.3-12.1c22.1,3.5,42.9,15,57.8,32.1
	c15.2,16.9,24.1,39.3,25.2,62.5c0.9-23.2-7.1-46.8-21.8-65.4C464.1,19.6,442.5,6.6,418.9,2z M470.1,100.1h-24.3h-24.3l-11.3,0
	c-1.4-3.7-4.9-6.3-9.1-6.3c-3.7,0-6.8,2.1-8.5,5.2l-7.4,0h-15.9h-15.9h-7.9c-2.6,1.4-5.3,2.7-7.9,4.6c2.6,1.8,5.3,3.2,7.9,4.6h7.9
	h15.9h15.9l7.4,0c1.7,3,4.8,5.2,8.5,5.2c4.2,0,7.7-2.6,9.1-6.3l11.3,0h24.3h24.3h12.2c4.1-1.2,8.1-2,12.2-3.4
	c-4.1-1.4-8.1-2.3-12.2-3.4H470.1z M401.3,108.1c-2.5,0-4.5-2-4.5-4.4c0-2.5,2-4.4,4.5-4.4c2.5,0,4.4,2,4.4,4.4
	C405.7,106.1,403.7,108.1,401.3,108.1z M100.5,149.8h10.7V70.9h-10.7V149.8z M0,54.3h37v95.6h11.1V54.3h37v-9.6H0V54.3z M256.3,73.9
	c-4.8-2.5-10.3-3.7-16.8-3.7c-8.2,0-15.3,2-21.1,5.9c-4.3,2.9-7.7,6.5-10,10.7c-1.9-4.6-4.7-8.2-8.5-10.9c-5.4-3.9-12-5.8-19.7-5.8
	c-7.3,0-13.7,1.6-19,4.9c-4.3,2.6-7.6,6-10,10.2V70.9H141v78.9h10.7v-41.5c0-6,1.1-11.1,3.2-15.4c2.2-4.3,5.2-7.5,9.2-9.8
	c4-2.3,8.7-3.4,14-3.4c7.2,0,12.8,2.1,16.8,6.4c4,4.3,6,10.5,6,18.9v44.8h10.7v-41.5c0-6,1.1-11.1,3.2-15.4c2.2-4.3,5.2-7.5,9.2-9.8
	c4-2.3,8.6-3.4,14.1-3.4c7.2,0,12.8,2.1,16.8,6.4c4,4.3,5.9,10.5,5.9,18.9v44.8h10.7V104c0-7.6-1.3-13.9-4-18.9
	C264.8,80.1,261.1,76.3,256.3,73.9z M105.9,38.3c-2.2,0-4.1,0.7-5.6,2.2c-1.5,1.5-2.3,3.2-2.3,5.3c0,2.1,0.8,3.9,2.3,5.4
	s3.4,2.3,5.6,2.3c2.3,0,4.2-0.8,5.6-2.3c1.5-1.5,2.2-3.4,2.2-5.6c0-2.1-0.8-3.9-2.3-5.3C110,39,108.1,38.3,105.9,38.3z M600.7,70.9
	h-13.1l-47.2,43V38.3h-10.7v111.5h10.7v-22.5l18.6-17.2l31.9,39.7H604l-37-46.7L600.7,70.9z M758.1,75.2c-5.8-3.4-12.3-5-19.8-5
	c-7.3,0-13.9,1.7-19.8,5.2c-5.9,3.5-10.5,8.2-13.8,14.2c-3.4,6-5,12.9-5,20.7c0,7.8,1.8,14.8,5.3,20.8c3.5,6.1,8.4,10.8,14.6,14.3
	c6.2,3.5,13.4,5.2,21.6,5.2c6.3,0,12.1-1.1,17.4-3.3c5.3-2.2,9.6-5.4,13.1-9.6l-6-6.9c-3,3.5-6.6,6.1-10.7,7.8
	c-4.2,1.7-8.6,2.6-13.5,2.6c-6.1,0-11.5-1.3-16.3-3.8c-4.8-2.6-8.5-6.1-11.1-10.7c-2.2-3.8-3.5-8.2-3.9-13h66.3c0-0.6,0-1.2,0.1-1.7
	c0-0.5,0.1-1.1,0.1-1.6c0-7.9-1.7-14.9-5-21C768.4,83.3,763.8,78.6,758.1,75.2z M710.2,105.7c0.4-4.4,1.5-8.4,3.4-12
	c2.4-4.5,5.8-8,10.1-10.5c4.3-2.5,9.2-3.8,14.6-3.8c5.5,0,10.4,1.3,14.6,3.8c4.2,2.5,7.5,6,10,10.4c2,3.6,3.2,7.7,3.5,12.1H710.2z
	 M667.3,75.2c-5.8-3.4-12.3-5-19.8-5c-7.3,0-13.9,1.7-19.8,5.2c-5.9,3.5-10.5,8.2-13.8,14.2c-3.4,6-5,12.9-5,20.7
	c0,7.8,1.8,14.8,5.3,20.8c3.5,6.1,8.4,10.8,14.6,14.3c6.2,3.5,13.4,5.2,21.6,5.2c6.3,0,12.1-1.1,17.4-3.3c5.3-2.2,9.6-5.4,13.1-9.6
	l-6-6.9c-3,3.5-6.6,6.1-10.7,7.8c-4.2,1.7-8.6,2.6-13.5,2.6c-6.1,0-11.5-1.3-16.3-3.8c-4.8-2.6-8.5-6.1-11.1-10.7
	c-2.2-3.8-3.5-8.2-3.9-13h66.3c0-0.6,0-1.2,0.1-1.7c0-0.5,0.1-1.1,0.1-1.6c0-7.9-1.7-14.9-5-21C677.6,83.3,673.1,78.6,667.3,75.2z
	 M619.5,105.7c0.4-4.4,1.5-8.4,3.4-12c2.4-4.5,5.8-8,10.1-10.5c4.3-2.5,9.2-3.8,14.6-3.8c5.5,0,10.4,1.3,14.6,3.8
	c4.2,2.5,7.5,6,10,10.4c2,3.6,3.2,7.7,3.5,12.1H619.5z M873.4,89.4c-3.4-6.1-8.1-10.8-14.1-14.1c-6-3.4-12.7-5-20.2-5
	c-6.9,0-13.1,1.6-18.6,4.7c-4.9,2.7-8.8,6.6-11.9,11.5V70.9h-10.2V179h10.7v-44.2c3,4.7,6.9,8.4,11.6,11.1
	c5.5,3.2,11.7,4.7,18.5,4.7c7.5,0,14.3-1.7,20.2-5.1c6-3.4,10.6-8.1,14.1-14.1c3.4-6,5.1-13,5.1-21
	C878.5,102.4,876.8,95.4,873.4,89.4z M864,126.5c-2.6,4.7-6.1,8.3-10.5,10.8c-4.4,2.6-9.4,3.8-15,3.8c-5.6,0-10.6-1.3-15.1-3.8
	c-4.5-2.6-8-6.2-10.5-10.8c-2.6-4.7-3.8-10-3.8-16.2c0-6.1,1.3-11.5,3.8-16.1c2.6-4.6,6.1-8.2,10.5-10.8c4.5-2.6,9.5-3.9,15.1-3.9
	c5.6,0,10.6,1.3,15,3.9c4.4,2.6,7.9,6.2,10.5,10.8c2.6,4.6,3.9,10,3.9,16.1C867.9,116.4,866.6,121.8,864,126.5z"/>
</svg>
