<svg width="48" height="48" viewBox="0 0 48 48" fill="none" xmlns="http://www.w3.org/2000/svg">
<g clip-path="url(#clip0_114_163)">
<path d="M28 24C28 21.79 26.21 20 24 20C21.79 20 20 21.79 20 24C20 26.21 21.79 28 24 28C26.21 28 28 26.21 28 24ZM24 6C14.06 6 6 14.06 6 24H0L8 32L16 24H10C10 16.27 16.27 10 24 10C31.73 10 38 16.27 38 24C38 31.73 31.73 38 24 38C20.97 38 18.18 37.03 15.88 35.39L13.05 38.26C16.09 40.6 19.88 42 24 42C33.94 42 42 33.94 42 24C42 14.06 33.94 6 24 6Z" fill="white"/>
</g>
<defs>
<clipPath id="clip0_114_163">
<rect width="48" height="48" fill="white"/>
</clipPath>
</defs>
</svg>
