<svg width="48" height="48" viewBox="0 0 48 48" fill="none" xmlns="http://www.w3.org/2000/svg">
<g clip-path="url(#clip0_122_47)">
<path d="M34.02 28H32.43L31.88 27.45C33.84 25.18 35.02 22.23 35.02 19C35.02 11.82 29.2 6.01001 22.02 6.01001C14.84 6.01001 9.03 12 9.02 19H4L11.68 27L20 19H13.02C13.03 14 17.05 10.01 22.02 10.01C26.99 10.01 31.02 14.04 31.02 19.01C31.02 23.98 26.99 28.01 22.02 28.01C20.73 28.01 19.5 27.73 18.39 27.24L15.43 30.2C17.36 31.34 19.61 32.01 22.02 32.01C25.25 32.01 28.19 30.83 30.46 28.88L31 29.42V31L41.01 40.98L43.99 38L34.02 28Z" fill="white"/>
</g>
<defs>
<clipPath id="clip0_122_47">
<rect width="48" height="48" fill="white"/>
</clipPath>
</defs>
</svg>
