<svg width="24" height="24" viewBox="0 0 24 24" fill="none" xmlns="http://www.w3.org/2000/svg">
<path fill-rule="evenodd" clip-rule="evenodd" d="M19.7717 8.08889C19.7785 8.26374 19.7807 8.43859 19.7807 8.61344C19.7807 13.9156 16.0509 20.0367 9.23029 20.0367C7.13514 20.0367 5.18694 19.369 3.54547 18.2322C3.83563 18.264 4.13031 18.2879 4.42952 18.2879C6.16669 18.2879 7.76669 17.6439 9.03584 16.5628C7.41324 16.5389 6.04309 15.3704 5.57054 13.7805C5.79739 13.8282 6.03104 13.8521 6.26994 13.8521C6.60684 13.8521 6.93389 13.8045 7.24744 13.7091C5.54944 13.3434 4.2705 11.7218 4.2705 9.77424C4.2705 9.75039 4.2705 9.74239 4.2705 9.72649C4.77092 10.0206 5.34369 10.2033 5.95189 10.2272C4.95556 9.50379 4.30062 8.27169 4.30062 6.88054C4.30062 6.14924 4.48301 5.45759 4.80407 4.8614C6.63244 7.29389 9.36599 8.89174 12.4477 9.05869C12.3843 8.76454 12.3519 8.45459 12.3519 8.14459C12.3519 5.92669 14.0122 4.13013 16.0607 4.13013C17.1271 4.13013 18.0903 4.61511 18.7663 5.39414C19.6126 5.21924 20.4055 4.88541 21.123 4.42435C20.8449 5.36234 20.2578 6.14919 19.4905 6.64204C20.2412 6.54664 20.9572 6.33219 21.6212 6.01419C21.123 6.81709 20.4959 7.52449 19.7717 8.08889Z" fill="black"/>
</svg>
